<?xml version="1.0" encoding="UTF-8" standalone="no"?>
<svg xmlns:dc="http://purl.org/dc/elements/1.1/" xmlns:cc="http://creativecommons.org/ns#" xmlns:rdf="http://www.w3.org/1999/02/22-rdf-syntax-ns#" xmlns:svg="http://www.w3.org/2000/svg" xmlns="http://www.w3.org/2000/svg" xmlns:sodipodi="http://sodipodi.sourceforge.net/DTD/sodipodi-0.dtd" xmlns:inkscape="http://www.inkscape.org/namespaces/inkscape" viewBox="0 0 907.45874 404.82126" height="404.82126" width="907.45874" xml:space="preserve" id="svg2" version="1.1"> <metadata id="metadata8"/> <defs id="defs6"/> <g transform="matrix(1.25,0,0,-1.25,0,404.82125)" id="g10"> <path id="path14" style="fill:#100f0d;fill-opacity:1;fill-rule:nonzero;stroke:none;stroke-width:0.1" d="m 225.116,241.764 c 0,2.286 -2.666,2.286 -3.948,2.286 -4.38,0 -12.08,-0.302 -16.68,-0.482 -1.826,-0.072 -3.112,-0.123 -3.406,-0.123 -0.254,0 -1.244,0.039 -2.729,0.094 -4.384,0.166 -13.502,0.511 -20.433,0.511 -1.28,0 -3.948,0 -3.948,-2.286 0,-1.089 0.971,-1.878 2.308,-1.878 1.852,0 5.249,-0.205 6.795,-0.586 7.522,-2.039 8.73,-3.576 8.73,-20.165 v -34.346 c 0,-3.067 -1.191,-5.127 -3.763,-6.492 -5.022,-2.852 -15.461,-4.152 -23.034,-4.152 -20.527,0 -38.44,7.21 -53.241,21.433 -7.444,7.124 -21.5205,27.892 -21.5205,55.481 0,21.996 7.489,40.984 20.0335,50.792 14.903,11.594 29.693,13.192 43.453,13.192 25.482,0 42.274,-8.07 47.603,-16.054 3.504,-5.528 4.117,-11.823 4.206,-13.054 0.193,-1.697 0.41,-3.621 2.099,-3.621 2.324,0 2.514,2.223 2.514,4.91 0,14.668 0.761,21.676 1.169,25.44 0.159,1.47 0.265,2.441 0.265,3.247 0,1.448 -1.03,2.286 -3.104,2.491 -5.428,0.212 -12.511,1.072 -16.492,2.005 -0.678,0.14 -16.772,3.45 -31.495,3.45 -15.811,0 -36.336,-1.457 -54.875,-12.827 -21.6324,-13.423 -34.5468,-38.485 -34.5468,-67.044 0,-27.311 13.266,-48.362 24.6254,-58.09 16.7764,-14.448 39.6114,-21.777 67.8704,-21.777 12.699,0 30.864,2.409 43.788,9.182 2.803,1.611 2.999,2.362 2.999,11.488 v 22.628 c 0,8.434 0,14.525 0.408,20.975 0.422,7.264 2.198,10.013 7.105,10.906 2.378,0.391 3.572,0.588 4.937,0.588 1.337,0 2.307,0.789 2.307,1.878"/><path id="path16" style="fill:#100f0d;fill-opacity:1;fill-rule:nonzero;stroke:none;stroke-width:0.1" d="m 280.375,230.282 h -25.598 c 0.007,0.021 0.016,0.047 0.027,0.072 l 11.921,36.574 c 0.158,0.473 0.291,0.749 0.382,0.907 0.093,-0.16 0.226,-0.439 0.386,-0.917 L 280.348,230.4 c 0.01,-0.046 0.019,-0.086 0.027,-0.118 z m 40.587,-42.949 c -1.311,0 -3.279,0.135 -5.233,0.786 -2.963,0.848 -6.612,3.25 -11.218,14.646 -5.89,14.68 -18.37,47.276 -25.827,66.752 -2.988,7.804 -5.155,13.463 -5.736,14.935 -1.59,4.106 -2.256,5.3 -3.604,5.3 -1.341,0 -1.974,-1.219 -3.61,-5.722 l -30.753,-84.134 c -2.603,-7.234 -5.21,-11.565 -10.836,-12.3 -1.093,-0.135 -2.962,-0.263 -3.846,-0.263 -1.128,0 -1.886,-0.598 -1.886,-1.484 0,-1.753 2.189,-1.753 3.241,-1.753 4.304,0 9.069,0.184 12.222,0.305 1.495,0.058 2.605,0.1 3.086,0.1 0.596,0 1.892,-0.065 3.437,-0.142 2.305,-0.116 5.176,-0.263 7.132,-0.263 2.231,0 2.699,0.954 2.699,1.753 0,0.554 -0.262,1.484 -2.022,1.484 h -1.356 c -1.731,0 -4.478,0.883 -4.478,3.259 0,2.377 0.66,5.52 1.862,8.864 l 8.114,23.942 c 0.248,0.616 0.5,0.667 0.736,0.667 h 29.13 c 0.331,0 0.415,-0.035 0.594,-0.382 l 12.597,-33.326 c 0.343,-0.913 0.387,-1.722 0.123,-2.271 -0.176,-0.37 -0.423,-0.486 -0.473,-0.504 -1.265,-0.314 -1.454,-1.135 -1.454,-1.598 0,-1.381 1.535,-1.458 4.077,-1.585 l 0.636,-0.031 c 6.035,-0.174 13.596,-0.272 21.291,-0.272 2.241,0 3.378,0.591 3.378,1.753 0,0.984 -0.68,1.484 -2.023,1.484"/><path id="path18" style="fill:#100f0d;fill-opacity:1;fill-rule:nonzero;stroke:none;stroke-width:0.1" d="m 464.363,187.333 c -1.308,0 -4.779,0 -8.602,1.183 -5.525,1.8 -6.358,9.312 -6.855,13.798 l -9.078,83.184 c -0.227,2.154 -0.591,4.254 -2.289,4.254 -1.51,0 -2.219,-1.605 -2.64,-2.551 l -39.238,-83.811 -40.836,83.939 c -0.661,1.455 -1.364,2.423 -2.642,2.423 -1.608,0 -1.986,-2.092 -2.155,-3.031 l -9.754,-88.335 -0.05,-0.488 c -0.509,-4.871 -0.987,-9.475 -4.835,-10.174 -1.966,-0.391 -2.878,-0.391 -3.935,-0.391 -1.006,0 -2.024,-0.465 -2.024,-1.349 0,-1.253 1,-1.888 2.974,-1.888 2.333,0 5.809,0.165 8.347,0.284 1.449,0.067 2.59,0.121 3.032,0.121 0.341,0 1.221,-0.04 2.422,-0.096 2.686,-0.123 6.743,-0.309 10.178,-0.309 0.93,0 3.106,0 3.106,1.888 0,0.768 -0.752,1.349 -1.75,1.349 -0.817,0 -2.788,0.137 -5.019,0.665 -1.729,0.344 -2.983,1.835 -2.983,3.543 0,2.321 0,4.717 0.134,6.852 l 5.28,61.268 c 3.214,-7.253 16.114,-34.894 17.3,-37.256 l 0.22,-0.444 c 3.704,-7.438 12.638,-25.351 15.634,-31.001 l 0.305,-0.577 c 2.566,-4.861 3.176,-6.017 4.489,-6.017 1.495,0 2.004,1.076 4.144,5.606 l 33.42,70.919 6.345,-68.206 c 0.256,-2.299 0.084,-3.797 -0.126,-4.173 -0.908,-0.217 -1.369,-0.747 -1.369,-1.579 0,-1.386 1.484,-1.767 4.407,-2.02 5.157,-0.421 19.839,-0.817 22.68,-0.817 3.171,0 3.513,1.321 3.513,1.888 0,0.614 -0.304,1.349 -1.75,1.349"/><path id="path20" style="fill:#100f0d;fill-opacity:1;fill-rule:nonzero;stroke:none;stroke-width:0.1" d="m 536.094,204.045 c -1.424,0 -1.698,-1.513 -1.899,-2.626 -0.937,-5.474 -2.508,-8.027 -5.801,-9.415 -3.457,-1.463 -9.411,-1.463 -12.969,-1.463 -13.572,0 -14.934,1.884 -15.318,10.663 -0.096,2.063 -0.053,10.963 -0.022,17.462 0.013,2.553 0.024,4.755 0.024,6.068 v 12.128 c 0,0.251 0.044,0.294 0.298,0.294 2.309,0 15.909,-0.275 19.632,-0.684 4.857,-0.501 6.059,-2.476 6.598,-4.353 0.522,-1.695 0.522,-2.985 0.522,-4.353 0,-1.16 0.64,-1.911 1.631,-1.911 1.636,0 1.636,2.058 1.636,3.288 0,0.9 0.266,5.952 0.547,8.756 0.258,2.808 0.616,4.757 0.853,6.047 0.15,0.819 0.25,1.361 0.25,1.733 0,1.598 -0.945,1.771 -1.353,1.771 -0.806,0 -1.379,-0.655 -2.325,-1.739 l -0.239,-0.277 c -1.095,-1.215 -3.011,-1.456 -6.039,-1.707 -2.318,-0.204 -12.808,-0.277 -21.935,-0.302 -0.018,0.029 -0.076,0.168 -0.076,0.738 v 38.03 c 0,0.578 0.114,0.707 0.158,0.707 h 10e-4 c 1.711,0 16.51,-0.137 18.805,-0.41 7.172,-0.793 8.392,-2.342 9.239,-4.276 0.613,-1.463 0.777,-3.642 0.777,-4.699 0,-2.035 0.964,-2.464 1.772,-2.464 0.797,0 1.342,0.691 1.621,2.076 0.183,1.105 0.362,4.012 0.506,6.348 0.074,1.244 0.139,2.307 0.187,2.786 0.241,2.245 0.572,3.704 0.81,4.77 0.173,0.758 0.297,1.307 0.297,1.774 0,1.663 -0.764,1.91 -1.219,1.91 -0.546,0 -0.99,-0.224 -1.384,-0.423 -0.239,-0.121 -0.466,-0.235 -0.708,-0.285 -1.139,-0.284 -3.416,-0.546 -5.789,-0.669 -3.122,-0.133 -30.369,-0.134 -31.526,-0.134 -0.171,0 -0.836,0.026 -1.832,0.064 -2.948,0.111 -9.08,0.345 -13.741,0.345 -0.86,0 -2.874,0 -2.874,-1.77 0,-0.868 0.745,-1.497 1.771,-1.497 1.244,0 3.509,-0.137 4.548,-0.4 3.905,-0.826 5.115,-2.45 5.395,-7.241 0.275,-4.388 0.275,-8.256 0.275,-29.719 v -24.252 c 0,-12.918 0,-24.076 -0.682,-29.81 -0.596,-4.313 -1.296,-6.582 -3.479,-7.017 -0.731,-0.163 -2.584,-0.537 -3.989,-0.537 -1.224,0 -1.772,-0.751 -1.772,-1.492 0,-1.772 2.014,-1.772 2.874,-1.772 2.946,0 8.123,0.204 11.217,0.328 1.225,0.048 2.091,0.081 2.289,0.081 1.202,0 2.903,-0.075 5.26,-0.181 5.344,-0.24 14.291,-0.642 28.771,-0.642 5.372,0 6.993,0 8.092,4.094 0.679,2.851 1.81,12.263 1.81,13.521 0,1.023 0,2.738 -1.495,2.738"/><path id="path22" style="fill:#100f0d;fill-opacity:1;fill-rule:nonzero;stroke:none;stroke-width:0.1" d="m 667.802,244.432 c -0.599,0 -0.951,-0.463 -1.261,-0.871 l -0.166,-0.216 c -0.515,-0.741 -1.201,-0.988 -3.183,-1.152 -1.093,-0.077 -2.178,-0.077 -3.555,-0.077 l -12.508,-0.079 c 0,0.015 0,0.03 0,0.047 v 24.465 c 0,0.187 0.029,0.267 0.038,0.211 l 12.315,-0.242 c 2.838,-0.073 4.482,-1.368 4.851,-2.169 0.43,-0.931 0.66,-2.203 0.66,-2.761 0,-1.549 1.024,-1.627 1.229,-1.627 0.462,0 1.061,0.245 1.299,1.438 0.108,0.646 0.207,2.253 0.294,3.67 0.046,0.737 0.084,1.37 0.112,1.651 0.138,1.285 0.327,2.125 0.465,2.737 0.105,0.457 0.179,0.789 0.179,1.091 0,0.819 -0.474,1.39 -1.15,1.39 -0.353,0 -0.639,-0.161 -0.892,-0.301 -0.129,-0.074 -0.27,-0.157 -0.441,-0.214 -0.481,-0.161 -1.384,-0.199 -2.43,-0.245 l -0.906,-0.04 c -1.738,-0.076 -16.675,-0.08 -19.653,-0.08 -0.098,0 -0.476,0.016 -1.047,0.037 -1.713,0.066 -5.278,0.2 -7.991,0.2 -0.483,0 -1.948,0 -1.948,-1.305 0,-0.657 0.562,-1.152 1.307,-1.152 0.687,0 1.994,-0.078 2.581,-0.222 2.155,-0.459 2.752,-1.272 2.914,-3.949 0.155,-2.538 0.155,-7.189 0.155,-19.621 v -14.081 c 0,-7.456 0,-18.723 -0.394,-22.034 -0.327,-2.372 -0.694,-3.616 -1.8,-3.837 -0.418,-0.092 -1.474,-0.304 -2.256,-0.304 -0.9,0 -1.31,-0.595 -1.31,-1.149 0,-1.311 1.466,-1.311 1.949,-1.311 1.719,0 4.731,0.121 6.531,0.195 0.701,0.028 1.197,0.047 1.309,0.047 0.091,0 0.424,-0.012 0.934,-0.03 1.789,-0.071 5.512,-0.212 8.909,-0.212 1.759,0 1.948,0.918 1.948,1.311 0,0.554 -0.409,1.149 -1.307,1.149 -0.659,0 -2.365,0.151 -3.514,0.314 -1.853,0.246 -2.297,1.425 -2.546,3.815 -0.394,3.323 -0.394,14.59 -0.394,22.046 v 6.799 c 0,0.019 0,0.036 10e-4,0.052 3.039,0 12.475,-0.019 14.269,-0.236 2.122,-0.27 3.256,-1.437 3.607,-2.426 0.263,-0.791 0.354,-1.724 0.426,-2.472 l 0.023,-0.196 c 0,-0.83 0.492,-1.39 1.227,-1.39 1.23,0 1.23,1.425 1.23,2.19 0,0.556 0.16,3.75 0.317,5.296 0.146,1.623 0.355,2.75 0.493,3.494 0.093,0.505 0.15,0.847 0.15,1.05 0,1.179 -0.748,1.306 -1.07,1.306"/><path id="path24" style="fill:#100f0d;fill-opacity:1;fill-rule:nonzero;stroke:none;stroke-width:0.1" d="m 606.366,209.707 v 52.328 c 7.926,-3.674 14.426,-12.359 14.426,-26.787 0,-17.126 -8.056,-23.318 -14.426,-25.541 z m -7.647,54.32 c 1.855,-0.137 3.71,-0.514 5.522,-1.137 v -53.81 c -2.178,-0.521 -3.966,-0.602 -4.862,-0.602 -0.223,0 -0.438,0.029 -0.66,0.034 z m -7.142,-0.514 c 1.582,0.342 3.255,0.533 5.017,0.567 v -55.447 c -1.751,0.195 -3.427,0.573 -5.017,1.119 z m -2.126,-52.899 c -9.167,4.25 -15.004,14.525 -15.004,27.839 0,12.674 5.591,21.486 15.004,24.498 z m 8.249,57.548 c -23.451,0 -32.191,-19.598 -32.191,-31.951 0,-15.466 9.923,-32.114 31.71,-32.114 18.885,0 32.591,14.043 32.591,33.393 0,18.346 -12.904,30.672 -32.11,30.672"/><path id="path26" style="fill:#100f0d;fill-opacity:1;fill-rule:nonzero;stroke:none;stroke-width:0.1" d="m 724.626,142.543 c -1.176,4.801 -2.789,11.375 -2.789,14.901 0,1.186 0,2.98 -1.629,2.98 -0.468,0 -1.138,-0.133 -2.154,-0.34 -2.759,-0.557 -7.894,-1.592 -16.958,-1.592 H 30.5895 c -2.3692,0 -9.7903,0.404 -15.2032,0.964 -3.232,0.241 -5.1086,1.073 -6.47771,1.681 -0.80742,0.357 -1.44414,0.639 -2.06836,0.639 -1.11406,0 -1.75664,-1.689 -2.48007,-3.891 l -0.09063,-0.28 C 4.04023,156.69 0,139.475 0,137.364 c 0,-2.226 1.2457,-2.399 1.62695,-2.399 1.16719,0 1.93086,0.706 2.53985,2.332 0.58476,1.365 1.13633,2.652 3.22343,5.877 2.91487,4.374 7.21287,5.695 19.15707,5.887 l 27.9035,0.377 V 68.4289 c 0,-18.1258 0,-45.5211 -0.9559,-53.5789 C 52.6445,8.67891 51.6262,5.43086 48.4055,4.78789 46.2727,4.31406 44.1598,4.03008 42.7539,4.03008 41.1285,4.03008 40.5523,3.04805 40.5523,2.2082 40.5523,0 43.0824,0 44.2988,0 c 4.1282,0 11.3821,0.289844 15.7168,0.464063 1.7199,0.069921 2.9317,0.114843 3.2086,0.114843 0.2223,0 1.0371,-0.026953 2.2914,-0.076953 C 69.8281,0.339844 78.8023,0 86.9734,0 c 3.1012,0 3.7524,1.20117 3.7524,2.2082 0,0.83985 -0.5797,1.82188 -2.2082,1.82188 -1.6625,0 -5.8403,0.37109 -8.6035,0.76601 -5.0465,0.67305 -6.3383,4.04297 -6.9594,10.03981 -0.9609,8.0719 -0.9609,35.4672 -0.9609,53.593 v 81.0201 l 621.7492,-0.388 c 16.625,-0.347 27.022,-4.1 27.813,-10.017 l 0.192,-2.113 c 0.158,-2.206 0.421,-3.896 2.205,-3.896 0.471,0 2.014,0.227 2.014,3.171 0,0.841 -0.485,2.853 -1.341,6.337"/><path id="path28" style="fill:#100f0d;fill-opacity:1;fill-rule:nonzero;stroke:none;stroke-width:0.1" d="m 205.099,20.8621 c -1.175,0 -4.188,0.266 -6.204,0.5508 -3.539,0.4742 -4.448,2.8609 -4.884,7.1152 -0.695,5.836 -0.695,17.1629 -0.695,30.2758 v 24.6172 c 0,21.7869 0,25.7139 0.278,30.1699 0.281,4.976 1.407,6.765 4.622,7.361 1.633,0.274 2.452,0.41 3.388,0.41 1.032,0 1.784,0.632 1.784,1.501 0,1.78 -2.035,1.78 -2.902,1.78 -2.992,0 -8.246,-0.209 -11.382,-0.333 -1.247,-0.048 -2.125,-0.085 -2.328,-0.085 -0.172,0 -0.844,0.027 -1.851,0.065 -2.991,0.114 -9.216,0.353 -13.955,0.353 -0.867,0 -2.898,0 -2.898,-1.78 0,-0.869 0.75,-1.501 1.78,-1.501 1.26,0 3.557,-0.141 4.618,-0.405 3.977,-0.844 5.21,-2.495 5.493,-7.371 0.278,-4.451 0.278,-8.378 0.278,-30.1649 V 80.484 c 0,-0.1031 -0.012,-0.152 -0.01,-0.1621 -0.02,-0.0059 -0.07,-0.0188 -0.169,-0.0188 h -59.301 c -0.098,0 -0.14,0.0098 -0.16,0.0098 -0.007,0.0191 -0.019,0.068 -0.019,0.1711 v 2.9371 c 0,21.7869 0,25.7139 0.279,30.1699 0.28,4.976 1.407,6.765 4.621,7.361 1.634,0.274 2.452,0.41 3.392,0.41 1.031,0 1.78,0.632 1.78,1.501 0,1.78 -2.035,1.78 -2.902,1.78 -2.996,0 -8.251,-0.209 -11.389,-0.333 -1.242,-0.048 -2.115,-0.085 -2.316,-0.085 -0.172,0 -0.844,0.027 -1.853,0.065 -2.992,0.114 -9.219,0.353 -13.9538,0.353 -0.8695,0 -2.9019,0 -2.9019,-1.78 0,-0.869 0.7519,-1.501 1.7844,-1.501 1.2601,0 3.5573,-0.141 4.6123,-0.405 3.978,-0.844 5.211,-2.495 5.494,-7.371 0.278,-4.451 0.278,-8.378 0.278,-30.1649 V 58.8039 c 0,-13.1129 0,-24.4398 -0.692,-30.2617 -0.588,-4.2871 -1.324,-6.6973 -3.539,-7.1383 -0.745,-0.166 -2.635,-0.5418 -4.0565,-0.5418 -1.2324,0 -1.784,-0.7551 -1.784,-1.5 0,-1.7851 2.0352,-1.7851 2.9015,-1.7851 2.996,0 8.253,0.2128 11.394,0.3371 1.242,0.0488 2.116,0.082 2.316,0.082 0.159,0 0.747,-0.0191 1.651,-0.0543 3.126,-0.1148 9.626,-0.3648 15.55,-0.3648 2.524,0 2.901,1.1179 2.901,1.7851 0,0.6899 -0.468,1.5 -1.784,1.5 -1.17,0 -4.183,0.266 -6.204,0.5508 -3.539,0.4742 -4.448,2.8609 -4.885,7.1152 -0.694,5.836 -0.694,17.1629 -0.694,30.2758 v 14.684 c 0,0.1019 0.012,0.1519 0.01,0.1609 0.02,0.0051 0.069,0.0192 0.169,0.0192 h 59.301 c 0.179,0 0.179,-0.1102 0.179,-0.1801 v -14.684 c 0,-13.1129 0,-24.4398 -0.692,-30.2617 -0.608,-4.3871 -1.318,-6.6922 -3.537,-7.1383 -0.749,-0.166 -2.644,-0.5418 -4.063,-0.5418 -1.228,0 -1.78,-0.7551 -1.78,-1.5 0,-1.7851 2.031,-1.7851 2.897,-1.7851 2.999,0 8.256,0.2128 11.397,0.3371 1.239,0.0488 2.113,0.082 2.313,0.082 0.162,0 0.752,-0.0191 1.661,-0.0543 3.124,-0.1148 9.625,-0.3648 15.544,-0.3648 2.525,0 2.902,1.1179 2.902,1.7851 0,0.6899 -0.468,1.5 -1.784,1.5"/><path id="path30" style="fill:#100f0d;fill-opacity:1;fill-rule:nonzero;stroke:none;stroke-width:0.1" d="m 242.531,116.991 c 0,0.531 0.222,0.869 0.645,1.041 1.313,0.394 4.979,0.813 9.182,0.813 14.736,0 23.534,-10.209 23.534,-27.3098 0,-9.6122 -3.081,-17.4582 -8.246,-20.9993 -3.271,-2.2769 -7.338,-2.539 -10.114,-2.539 -5.93,0 -12.366,0.9621 -14.344,2.1383 -0.469,0.2847 -0.657,0.6078 -0.657,1.1136 z m 80.46,-96.1289 c -0.822,0 -2.744,0 -5.352,0.4078 -3.709,0.5942 -9.472,2.259 -16.682,9.8699 -7.099,7.5883 -15.364,18.1942 -24.93,30.4731 l -3.753,4.8101 c 11.386,10.634 16.693,20.936 16.693,32.3829 0,9.8051 -6.243,16.9061 -9.929,19.5581 -7.713,5.534 -17.46,6.279 -25.98,6.279 -2.73,0 -7.977,-0.165 -11.809,-0.287 -2.297,-0.072 -4.127,-0.131 -4.698,-0.131 -0.172,0 -0.843,0.027 -1.853,0.065 -2.989,0.114 -9.214,0.353 -13.948,0.353 -0.868,0 -2.903,0 -2.903,-1.78 0,-0.869 0.75,-1.501 1.78,-1.501 1.263,0 3.562,-0.141 4.618,-0.405 4.382,-0.929 5.238,-3.024 5.493,-7.371 0.279,-4.451 0.279,-8.378 0.279,-30.1649 V 58.8039 c 0,-13.1129 0,-24.4398 -0.693,-30.2617 -0.607,-4.3832 -1.32,-6.6922 -3.543,-7.1383 -0.745,-0.166 -2.636,-0.5418 -4.056,-0.5418 -1.229,0 -1.781,-0.7551 -1.781,-1.5 0,-1.7851 2.036,-1.7851 2.902,-1.7851 3.57,0 10.325,0.3011 12.545,0.396 l 0.599,0.0231 c 0.162,0 0.752,-0.0191 1.663,-0.0543 3.125,-0.1148 9.626,-0.3648 15.543,-0.3648 2.525,0 2.902,1.1179 2.902,1.7851 0,0.6899 -0.47,1.5 -1.785,1.5 -1.171,0 -4.183,0.266 -6.204,0.5508 -3.539,0.4742 -4.447,2.8609 -4.884,7.1152 -0.694,5.836 -0.694,17.1629 -0.694,30.2758 v 3.357 c 0,0.4551 0.103,0.4551 0.301,0.461 l 17.221,-0.286 c 0.6,0 0.862,-0.1621 1.292,-0.58 1.182,-1.5368 3.068,-4.1387 5.252,-7.152 2.944,-4.0598 6.609,-9.1148 9.991,-13.548 l 1.776,-2.3411 c 7.011,-9.25 11.642,-15.3609 17.317,-18.3968 3.852,-2.0739 7.566,-2.741 15.283,-2.741 h 9.93 c 1.696,0 4.019,0 4.019,1.7851 0,0.8098 -0.881,1.5 -1.922,1.5"/><path id="path32" style="fill:#100f0d;fill-opacity:1;fill-rule:nonzero;stroke:none;stroke-width:0.1" d="m 540.966,124.643 c -3.797,0 -7.137,-0.184 -9.349,-0.307 -1.15,-0.063 -2.022,-0.111 -2.539,-0.111 -0.506,0 -1.571,0.046 -2.997,0.106 -2.917,0.124 -7.323,0.312 -11.55,0.312 -1.294,0 -3.463,0 -3.463,-1.641 0,-1.088 0.6,-1.64 1.785,-1.64 1.011,0 4.19,-0.122 6.687,-0.678 3.8,-0.98 4.821,-3.583 4.963,-12.663 l 1.498,-69.348 c -2.382,2.534 -6.322,6.8571 -11.105,12.1059 -6.23,6.8383 -13.982,15.3461 -21.281,23.1602 -21.637,23.182 -42.385,45.6039 -44.493,47.9899 -0.362,0.36 -0.787,0.833 -1.24,1.334 -1.812,2.015 -3.079,3.334 -4.121,3.334 -1.884,0 -2.203,-2.358 -2.203,-7.65 l -0.142,-80.1458 c 0,-12.7801 -0.762,-16.3024 -3.742,-17.1352 -1.787,-0.598 -4.092,-0.8039 -5.525,-0.8039 -1.312,0 -1.78,-0.7781 -1.78,-1.5 0,-1.7851 1.885,-1.7851 2.897,-1.7851 4.369,0 8.581,0.2089 11.1,0.3269 1.13,0.0563 1.947,0.0922 2.33,0.0922 0.354,0 1.051,-0.0332 2.051,-0.077 2.64,-0.1293 7.057,-0.3421 12.776,-0.3421 0.949,0 3.178,0 3.178,1.7851 0,0.7219 -0.469,1.5 -1.784,1.5 -0.382,0 -3.807,0.0231 -6.802,0.8078 -3.073,0.9121 -4.687,3.575 -4.989,15.611 l -1.761,65.1861 c 4.243,-4.751 19.111,-21.3459 35.307,-38.8022 14.869,-15.9867 35.022,-36.5488 36.526,-37.9187 7.765,-7.7633 9.262,-9.1481 10.677,-9.1481 1.705,0 1.922,1.1918 1.922,10.5918 l 0.281,81.9652 c 0,8.512 0.576,10.94 4.672,11.808 1.597,0.399 2.523,0.399 3.196,0.399 1.518,0 2.198,0.825 2.198,1.64 0,1.641 -1.988,1.641 -3.178,1.641"/><path id="path34" style="fill:#100f0d;fill-opacity:1;fill-rule:nonzero;stroke:none;stroke-width:0.1" d="m 621.044,37.7859 c -1.429,0 -1.708,-1.5281 -1.911,-2.65 -0.947,-5.5589 -2.545,-8.1531 -5.897,-9.5699 -3.515,-1.4898 -9.558,-1.4898 -13.167,-1.4898 -13.795,0 -15.177,1.9129 -15.567,10.8398 -0.1,2.0969 -0.053,11.134 -0.022,17.7289 0.014,2.5942 0.024,4.8242 0.024,6.159 v 12.3063 c 0,0.2796 0.063,0.3199 0.314,0.3199 2.349,0 16.178,-0.2781 19.935,-0.6973 4.939,-0.5058 6.162,-2.5207 6.709,-4.434 0.533,-1.7187 0.533,-3.0347 0.533,-4.4226 0,-1.1641 0.643,-1.9172 1.636,-1.9172 1.642,0 1.642,2.0781 1.642,3.318 0,0.907 0.269,6.0308 0.557,8.8921 0.259,2.861 0.626,4.8379 0.867,6.1469 0.154,0.8238 0.255,1.3692 0.255,1.7442 0,1.6089 -0.953,1.7839 -1.362,1.7839 -0.813,0 -1.39,-0.6621 -2.348,-1.7621 l -0.241,-0.2769 c -1.032,-1.1481 -2.656,-1.4512 -6.142,-1.7391 -2.35,-0.2082 -12.996,-0.2832 -22.276,-0.3 -0.018,0.0281 -0.079,0.1692 -0.079,0.7578 v 38.6042 c 0,0.607 0.121,0.737 0.176,0.739 1.661,0 16.755,-0.146 19.091,-0.417 7.289,-0.809 8.53,-2.387 9.394,-4.353 0.619,-1.49 0.784,-3.704 0.784,-4.78 0,-2.052 0.968,-2.481 1.779,-2.481 0.809,0 1.357,0.697 1.631,2.089 0.19,1.114 0.371,4.038 0.512,6.391 0.081,1.285 0.148,2.391 0.199,2.881 0.24,2.285 0.577,3.772 0.823,4.856 0.171,0.764 0.298,1.316 0.298,1.785 0,1.674 -0.766,1.925 -1.223,1.925 -0.551,0 -1.003,-0.227 -1.399,-0.43 -0.245,-0.124 -0.474,-0.24 -0.721,-0.289 -1.142,-0.291 -3.454,-0.557 -5.882,-0.681 -3.165,-0.138 -30.821,-0.138 -31.996,-0.138 -0.175,0 -0.85,0.027 -1.865,0.065 -2.989,0.114 -9.214,0.353 -13.941,0.353 -0.87,0 -2.902,0 -2.902,-1.78 0,-0.869 0.75,-1.501 1.78,-1.501 1.259,0 3.556,-0.141 4.618,-0.405 4.382,-0.929 5.237,-3.024 5.492,-7.371 0.279,-4.451 0.279,-8.378 0.279,-30.1649 V 58.8039 c 0,-13.1129 0,-24.4398 -0.693,-30.2617 -0.607,-4.3832 -1.32,-6.6922 -3.543,-7.1383 -0.745,-0.166 -2.635,-0.5418 -4.058,-0.5418 -1.227,0 -1.777,-0.7551 -1.777,-1.5 0,-1.7851 2.034,-1.7851 2.901,-1.7851 2.989,0 8.241,0.2128 11.38,0.3371 1.248,0.0488 2.126,0.082 2.329,0.082 1.22,0 2.946,-0.0742 5.335,-0.1852 5.427,-0.2418 14.508,-0.6507 29.209,-0.6507 5.44,0 7.084,0 8.195,4.1429 0.729,3.0489 1.839,12.6188 1.839,13.7231 0,1.0308 0,2.7597 -1.504,2.7597"/><path id="path36" style="fill:#100f0d;fill-opacity:1;fill-rule:nonzero;stroke:none;stroke-width:0.1" d="m 675.497,78.7641 -3.908,3.0699 c -13.522,11.0762 -16.824,15.5871 -16.824,22.983 0,9.311 6.649,15.565 16.543,15.565 11.787,0 15.745,-4.941 16.901,-7.071 0.763,-1.393 1.601,-5.067 1.747,-6.756 0.127,-1.011 0.303,-2.398 1.771,-2.398 1.643,0 1.643,2.427 1.643,3.88 0,7.454 0.344,11.886 0.491,13.78 0.042,0.543 0.07,0.888 0.07,1.046 0,1.451 -1.102,1.638 -2.06,1.638 -0.995,0 -2.002,0.105 -4.74,0.685 -4.027,0.963 -8.21,1.411 -13.165,1.411 -17.992,0 -29.618,-10.14 -29.618,-25.832 0,-9.447 3.135,-18.3119 18.426,-30.8638 l 6.297,-5.1742 c 12.437,-10.2688 15.842,-15.5719 15.842,-24.6692 0,-8.9137 -6.642,-17.9359 -19.339,-17.9359 -5.194,0 -17.541,1.3383 -20.055,13.7422 -0.402,1.8847 -0.402,3.7839 -0.402,5.0347 0,0.8231 0,2.1981 -1.643,2.1981 -1.513,0 -1.682,-1.843 -1.777,-2.8559 -0.027,-0.4269 -0.069,-0.9738 -0.12,-1.6371 -0.218,-2.823 -0.585,-7.5519 -0.585,-13.2309 0,-3.7031 0.097,-4.723 2.469,-5.9101 5.306,-2.584 11.535,-3.8449 19.035,-3.8449 8.442,0 15.876,2.075 21.502,6.0019 8.973,6.3699 12.172,16.4461 12.172,23.7539 0,10.8262 -3.382,19.7621 -20.673,33.3903"/><path id="path38" style="fill:#100f0d;fill-opacity:1;fill-rule:nonzero;stroke:none;stroke-width:0.1" d="m 357.702,119.041 c 3.024,0.796 6.253,1.26 9.672,1.394 V 22.6918 c -3.402,0.4602 -6.625,1.3191 -9.672,2.5301 z m -3.611,-92.173 c -15.266,7.9429 -24.92,25.6031 -24.92,48.2992 0,21.6566 9.256,36.9198 24.92,42.7298 z m 25.902,91.451 V 22.9262 c -2.992,-0.5602 -5.412,-0.6672 -6.73,-0.6672 -0.775,0 -1.518,0.0828 -2.279,0.1191 v 98.0649 c 3.721,-0.159 7.46,-0.859 11.095,-2.124 z m 31.213,-48.7499 c 0,-32.123 -16.082,-42.4859 -27.602,-45.7871 v 93.988 c 14.951,-5.894 27.602,-21.4759 27.602,-48.2009 z m -40.877,57.0279 c -40.628,0 -55.768,-33.949 -55.768,-55.3482 0,-26.7898 17.189,-55.6308 54.926,-55.6308 32.721,0 56.471,24.339 56.471,57.8699 0,31.7651 -22.356,53.1091 -55.629,53.1091"/> </g> </svg>
